<?xml version="1.0" standalone="no"?>
<!DOCTYPE svg PUBLIC "-//W3C//DTD SVG 20010904//EN"
 "http://www.w3.org/TR/2001/REC-SVG-20010904/DTD/svg10.dtd">
<svg version="1.0" xmlns="http://www.w3.org/2000/svg"
 width="284.000000pt" height="252.000000pt" viewBox="0 0 284.000000 252.000000"
 preserveAspectRatio="xMidYMid meet">
<metadata>
Created by potrace 1.16, written by Peter Selinger 2001-2019
</metadata>
<g transform="translate(0.000000,252.000000) scale(0.100000,-0.100000)"
fill="#000000" stroke="none">
<path d="M0 1260 l0 -1260 1420 0 1420 0 0 1260 0 1260 -1420 0 -1420 0 0
-1260z m1608 939 l106 -71 139 3 140 4 62 -119 62 -119 116 -58 c63 -32 118
-63 121 -68 3 -5 2 -67 -3 -138 l-10 -128 70 -105 c38 -58 69 -114 69 -125 0
-11 -31 -67 -70 -125 l-69 -105 9 -129 c5 -71 7 -133 4 -138 -3 -5 -58 -35
-121 -67 l-116 -57 -61 -120 -61 -119 -140 3 -140 3 -108 -71 c-123 -81 -99
-82 -241 13 l-89 59 -86 -2 c-47 -1 -110 -3 -140 -4 l-55 -1 -59 121 -60 121
-119 59 -120 59 6 137 7 137 -70 105 c-39 58 -71 112 -71 120 0 7 32 61 71
120 l71 106 -7 137 -7 138 119 59 120 59 59 118 c32 66 63 120 69 120 5 1 69
1 140 -1 l130 -2 105 70 c58 39 109 71 114 71 5 1 56 -31 114 -70z"/>
<path d="M1370 1601 c0 -6 21 -30 48 -55 l47 -45 -33 -33 -33 -33 -24 28 c-27
30 -45 35 -45 12 0 -8 5 -15 12 -15 6 0 20 -8 30 -17 18 -16 18 -17 -1 -37
-10 -12 -22 -36 -26 -53 -5 -27 -3 -33 10 -33 13 0 15 6 11 28 -6 23 1 35 54
87 73 72 80 64 10 -12 -28 -30 -50 -64 -50 -76 0 -12 -3 -32 -6 -44 -5 -17 -2
-23 10 -23 13 0 15 7 10 39 -6 37 -3 42 49 95 48 49 56 54 67 40 11 -12 8 -25
-15 -75 -16 -33 -35 -65 -42 -71 -18 -14 -16 -38 2 -38 8 0 15 7 15 15 0 9 16
48 36 87 l36 71 -71 71 c-39 39 -71 77 -71 84 0 6 -7 12 -15 12 -8 0 -15 -4
-15 -9z"/>
</g>
</svg>
